<svg xmlns="http://www.w3.org/2000/svg" xmlns:xlink="http://www.w3.org/1999/xlink" width="1920" zoomAndPan="magnify" viewBox="0 0 1440 809.999993" height="1080" preserveAspectRatio="xMidYMid meet" version="1.0"><defs><g/></defs><rect x="-144" width="1728" fill="#ffffff" y="-80.999999" height="971.999992" fill-opacity="1"/><g fill="#000000" fill-opacity="1"><g transform="translate(283.417877, 473.443943)"><g><path d="M 44.3125 0 L 44.3125 -83.28125 L 80.8125 -83.28125 C 123.6875 -83.28125 146.5625 -114.609375 146.5625 -144.703125 C 146.5625 -174.8125 125.546875 -206.140625 90.703125 -206.140625 L 14.4375 -206.140625 L 14.4375 0 Z M 61.84375 -203.453125 C 98.53125 -203.453125 116.671875 -173.578125 116.671875 -144.296875 C 116.671875 -115.640625 98.125 -86.375 61.84375 -86.375 L 44.3125 -86.375 L 44.3125 -203.453125 Z M 61.84375 -203.453125 "/></g></g></g><g fill="#000000" fill-opacity="1"><g transform="translate(438.232486, 473.443943)"><g><path d="M 6.1875 -27.625 C 6.1875 -8.453125 26.796875 2.0625 46.171875 2.0625 C 84.3125 2.0625 104.921875 -25.15625 104.921875 -43.703125 L 104.921875 0 L 135.234375 0 C 126.78125 -34.421875 121.828125 -56.890625 114.609375 -86.171875 C 107.40625 -115.640625 104.3125 -142.234375 63.28125 -142.234375 C 39.984375 -142.234375 13.1875 -128.015625 7.21875 -102.25 C 17.734375 -101.625 39.984375 -97.921875 60.1875 -89.46875 C 33.1875 -74.828125 6.1875 -53.390625 6.1875 -27.625 Z M 101.828125 -43.703125 C 101.828125 -30.515625 85.546875 -6.1875 65.546875 -6.1875 C 48.65625 -6.1875 35.25 -17.109375 35.25 -32.15625 C 35.25 -53.390625 50.5 -72.15625 68.640625 -85.75 C 86.984375 -76.484375 101.828125 -63.078125 101.828125 -43.703125 Z M 64.515625 -91.9375 C 57.71875 -94.828125 50.09375 -97.5 42.265625 -99.765625 C 38.75 -100.796875 38.140625 -104.3125 38.140625 -106.15625 C 38.140625 -114.609375 51.953125 -133.171875 77.921875 -133.171875 C 91.734375 -133.171875 103.484375 -125.125 104.71875 -108.21875 C 95.234375 -105.546875 80.1875 -99.765625 64.515625 -91.9375 Z M 104.921875 -104.71875 L 104.921875 -43.703125 C 104.921875 -63.90625 91.734375 -77.921875 72.15625 -88.234375 C 83.078125 -95.859375 95.03125 -101.625 104.921875 -104.71875 Z M 104.921875 -104.71875 "/></g></g></g><g fill="#000000" fill-opacity="1"><g transform="translate(577.586267, 473.443943)"><g><path d="M 0 -127.390625 L 0 -126.359375 C 10.09375 -126.359375 14.640625 -124.09375 14.640625 -112.96875 L 14.640625 0 L 44.53125 0 L 44.53125 -81.21875 C 44.53125 -103.484375 59.375 -116.671875 75.453125 -116.671875 C 84.71875 -116.671875 92.140625 -113.578125 99.359375 -110.078125 L 110.28125 -137.078125 C 104.515625 -140.59375 97.5 -142.234375 89.265625 -142.234375 C 62.25 -142.234375 49.0625 -117.09375 44.53125 -97.921875 L 44.53125 -142.234375 C 33.8125 -136.046875 15.25 -129.25 0 -127.390625 Z M 0 -127.390625 "/></g></g></g><g fill="#000000" fill-opacity="1"><g transform="translate(691.996555, 473.443943)"><g><path d="M 10.3125 -128.625 L 10.3125 0 L 40.203125 0 L 40.203125 -137.078125 L 70.5 -137.078125 L 70.5 -140.171875 L 40.203125 -140.171875 L 40.203125 -162.4375 C 40.203125 -183.875 44.3125 -202.640625 56.0625 -202.640625 C 69.46875 -202.640625 76.6875 -182.015625 76.484375 -164.90625 L 77.515625 -164.90625 C 77.515625 -164.90625 85.75 -182.640625 95.03125 -200.78125 C 90.296875 -206.140625 79.78125 -208.203125 74 -208.203125 C 29.265625 -208.203125 10.3125 -170.484375 10.3125 -128.625 Z M 10.3125 -128.625 "/></g></g></g><g fill="#000000" fill-opacity="1"><g transform="translate(787.029249, 473.443943)"><g><path d="M 47.828125 2.0625 C 77.71875 2.0625 95.4375 -24.9375 98.328125 -42.265625 L 98.328125 0 L 128.21875 0 L 128.21875 -140.171875 L 98.328125 -140.171875 L 98.328125 -62.25 C 98.328125 -33.59375 81.015625 -7.21875 58.953125 -7.21875 C 49.0625 -7.21875 42.265625 -13.609375 42.265625 -26.796875 L 42.265625 -140.171875 L 12.375 -140.171875 L 12.375 -37.109375 C 12.375 0 36.90625 2.0625 47.828125 2.0625 Z M 47.828125 2.0625 "/></g></g></g><g fill="#000000" fill-opacity="1"><g transform="translate(927.619862, 473.443943)"><g><path d="M 0 -127.390625 L 0 -126.359375 C 10.09375 -126.359375 14.640625 -124.09375 14.640625 -112.96875 L 14.640625 0 L 44.53125 0 L 44.53125 -77.921875 C 44.53125 -106.578125 61.84375 -132.953125 83.90625 -132.953125 C 93.796875 -132.953125 100.59375 -126.5625 100.59375 -113.375 L 100.59375 0 L 130.484375 0 L 130.484375 -77.921875 C 130.484375 -106.578125 147.796875 -132.953125 169.859375 -132.953125 C 179.75 -132.953125 186.5625 -126.5625 186.5625 -113.375 L 186.5625 0 L 216.453125 0 L 216.453125 -103.0625 C 216.453125 -140.171875 191.921875 -142.234375 180.984375 -142.234375 C 151.09375 -142.234375 133.375 -115.234375 130.484375 -97.921875 L 130.484375 -103.0625 C 130.484375 -140.171875 105.953125 -142.234375 95.03125 -142.234375 C 65.140625 -142.234375 47.40625 -115.234375 44.53125 -97.921875 L 44.53125 -142.234375 C 33.8125 -136.046875 15.25 -129.25 0 -127.390625 Z M 0 -127.390625 "/></g></g></g></svg>